<svg id="Lager_1" data-name="Lager 1" xmlns="http://www.w3.org/2000/svg" viewBox="0 0 300.42 300.38"><path d="M-235.7,2766.22l-4.81-.1,0-2.84,13.12.28-.06,2.83-4.82-.1-.25,12.21-3.49-.07Z" transform="translate(387.27 -2763.28)"/><path d="M-224.67,2763.88l3.47.33-1.4,15-3.47-.32Z" transform="translate(387.27 -2763.28)"/><path d="M-216.21,2779.26a7.52,7.52,0,0,1-2.39-3.25,7.55,7.55,0,0,1-.35-4.13,7.58,7.58,0,0,1,1.75-3.76,7.41,7.41,0,0,1,3.36-2.22,8.69,8.69,0,0,1,4.29-.26,8.76,8.76,0,0,1,3.37,1.3,7.13,7.13,0,0,1,2.26,2.41l-2.56,1.64a4.78,4.78,0,0,0-3.42-2.39,5,5,0,0,0-2.56.16,4.4,4.4,0,0,0-2,1.39,5,5,0,0,0-1,2.35,5,5,0,0,0,.17,2.56,4.3,4.3,0,0,0,1.38,2,5,5,0,0,0,2.35,1,4.78,4.78,0,0,0,4-1.1l1.84,2.43a7.07,7.07,0,0,1-3,1.5,8.73,8.73,0,0,1-3.61.06A8.67,8.67,0,0,1-216.21,2779.26Z" transform="translate(387.27 -2763.28)"/><path d="M-197.29,2778.23l-2.54,1.43-1.09,3.65-3.31-1,4.31-14.42,3.32,1-2,6.74,8.4-4.83,3.71,1.11-7.9,4.64,3.93,9.89-3.89-1.17Z" transform="translate(387.27 -2763.28)"/><path d="M-182.86,2776.53l-4.45-1.83,1.08-2.62,12.13,5-1.08,2.63-4.45-1.83-4.64,11.3-3.22-1.32Z" transform="translate(387.27 -2763.28)"/><path d="M-168.88,2793.14l-6.15-3.3-2.7,2.22-3.15-1.69,13-10.1,3,1.63-1.17,16.44-3.22-1.72Zm.29-2.85.61-6.2-4.82,3.95Z" transform="translate(387.27 -2763.28)"/><path d="M-162.33,2800.09a7.57,7.57,0,0,1-.82-4,7.63,7.63,0,0,1,1.41-3.9,7.75,7.75,0,0,1,3.16-2.69,7.45,7.45,0,0,1,4-.61,8.69,8.69,0,0,1,4,1.56,8.93,8.93,0,0,1,2.52,2.58,7.19,7.19,0,0,1,1,3.14l-3,.42a4.82,4.82,0,0,0-2.11-3.6,5,5,0,0,0-2.39-.92,4.34,4.34,0,0,0-2.38.43,5,5,0,0,0-1.93,1.7,5,5,0,0,0-.92,2.4,4.44,4.44,0,0,0,.43,2.38,5.09,5.09,0,0,0,1.7,1.92,4.78,4.78,0,0,0,4.13.69l.66,3a7.07,7.07,0,0,1-3.33.13,9,9,0,0,1-3.31-1.46A8.65,8.65,0,0,1-162.33,2800.09Z" transform="translate(387.27 -2763.28)"/><path d="M-144.72,2807l-2.91.25-2.51,2.86-2.6-2.28,9.92-11.31,2.6,2.28-4.63,5.28,9.64-.89,2.91,2.56-9.11.93-.54,10.62-3.05-2.68Z" transform="translate(387.27 -2763.28)"/><path d="M-130.88,2811.5l-3.29-3.52,2.07-1.94,9,9.57-2.07,1.94-3.3-3.51-8.91,8.35-2.38-2.54Z" transform="translate(387.27 -2763.28)"/><path d="M-121.49,2817.76l2.19,2.71-11.7,9.47-2.19-2.71Z" transform="translate(387.27 -2763.28)"/><path d="M-126.58,2834.55a7.44,7.44,0,0,1,.65-4,7.59,7.59,0,0,1,2.71-3.13,7.65,7.65,0,0,1,3.91-1.38,7.45,7.45,0,0,1,3.94.85,8.66,8.66,0,0,1,3.18,2.89,8.8,8.8,0,0,1,1.43,3.31,7.25,7.25,0,0,1-.14,3.31l-3-.68a4.79,4.79,0,0,0-.67-4.12,5,5,0,0,0-1.91-1.72,4.44,4.44,0,0,0-2.38-.45,5,5,0,0,0-2.4.9,5,5,0,0,0-1.72,1.91,4.42,4.42,0,0,0-.45,2.37,5,5,0,0,0,.9,2.41,4.77,4.77,0,0,0,3.61,2.12l-.45,3a7,7,0,0,1-3.15-1.07,8.78,8.78,0,0,1-2.57-2.55A8.58,8.58,0,0,1-126.58,2834.55Z" transform="translate(387.27 -2763.28)"/><path d="M-112.62,2847.35l-2.8-.81-3.37,1.77-1.61-3.07,13.32-7,1.61,3.06-6.22,3.28,9.32,2.62,1.8,3.43-8.84-2.4-4.31,9.73-1.89-3.6Z" transform="translate(387.27 -2763.28)"/><path d="M-101.3,2856.48l-1.81-4.46,2.63-1.07,4.93,12.16-2.63,1.06-1.81-4.46-11.32,4.59-1.31-3.22Z" transform="translate(387.27 -2763.28)"/><path d="M-103.39,2878.1l-2-6.71-3.47-.38-1-3.43,16.33,2.24,1,3.31-12.57,10.66-1-3.51Zm2.23-1.79,4.87-3.9-6.2-.69Z" transform="translate(387.27 -2763.28)"/><path d="M-103.78,2887.62a7.46,7.46,0,0,1,2.25-3.34,7.65,7.65,0,0,1,3.78-1.72,7.65,7.65,0,0,1,4.13.38,7.53,7.53,0,0,1,3.22,2.42,8.63,8.63,0,0,1,1.68,4,8.83,8.83,0,0,1-.08,3.6,7.09,7.09,0,0,1-1.51,2.95l-2.41-1.86a4.82,4.82,0,0,0,1.11-4,5.12,5.12,0,0,0-1-2.35,4.32,4.32,0,0,0-2-1.4,5,5,0,0,0-2.56-.19,4.91,4.91,0,0,0-2.36,1,4.34,4.34,0,0,0-1.4,2,5,5,0,0,0-.19,2.56,4.78,4.78,0,0,0,2.39,3.43l-1.66,2.55a7,7,0,0,1-2.42-2.29,8.89,8.89,0,0,1-1.27-3.39A8.73,8.73,0,0,1-103.78,2887.62Z" transform="translate(387.27 -2763.28)"/><path d="M-96.43,2905.08l-2.21-1.91-3.8.21-.19-3.46,15-.81.18,3.46-7,.38,7.38,6.28.21,3.86-7-5.87-8,7-.22-4.06Z" transform="translate(387.27 -2763.28)"/><path d="M-89.95,2918.08l.2-4.81,2.84.12-.56,13.11-2.84-.12.21-4.82-12.2-.52.15-3.48Z" transform="translate(387.27 -2763.28)"/><path d="M-87.86,2929.18l-.4,3.46-14.95-1.74.4-3.46Z" transform="translate(387.27 -2763.28)"/><path d="M-103.41,2937.28a7.33,7.33,0,0,1,3.29-2.32,7.6,7.6,0,0,1,4.14-.26,7.77,7.77,0,0,1,3.72,1.83,7.49,7.49,0,0,1,2.15,3.42,8.71,8.71,0,0,1,.16,4.29,9,9,0,0,1-1.37,3.34,7.12,7.12,0,0,1-2.46,2.21l-1.59-2.6a4.81,4.81,0,0,0,2.47-3.36,4.93,4.93,0,0,0-.11-2.57,4.24,4.24,0,0,0-1.34-2,5,5,0,0,0-2.32-1.09,5,5,0,0,0-2.57.11,4.41,4.41,0,0,0-2,1.34,5,5,0,0,0-1.09,2.32,4.78,4.78,0,0,0,1,4.07l-2.47,1.78a7,7,0,0,1-1.43-3,8.67,8.67,0,0,1,0-3.62A8.59,8.59,0,0,1-103.41,2937.28Z" transform="translate(387.27 -2763.28)"/><path d="M-102.8,2956.23l-1.39-2.57-3.62-1.18,1.07-3.29,14.32,4.64-1.07,3.29-6.69-2.16,4.64,8.5-1.19,3.68-4.47-8-10,3.71,1.26-3.87Z" transform="translate(387.27 -2763.28)"/><path d="M-101.43,2970.69l1.93-4.42,2.6,1.14-5.25,12-2.6-1.14,1.93-4.41L-114,2969l1.4-3.19Z" transform="translate(387.27 -2763.28)"/><path d="M-118.35,2984.3l3.43-6.08-2.15-2.75,1.76-3.11,9.8,13.24-1.69,3-16.41-1.54,1.8-3.18Zm2.84.35,6.19.75-3.84-4.91Z" transform="translate(387.27 -2763.28)"/><path d="M-125.43,2990.68a7.48,7.48,0,0,1,4-.73,7.64,7.64,0,0,1,3.87,1.49,7.64,7.64,0,0,1,2.62,3.22,7.46,7.46,0,0,1,.53,4,8.7,8.7,0,0,1-1.65,4,8.83,8.83,0,0,1-2.64,2.45,6.93,6.93,0,0,1-3.16,1l-.36-3a4.82,4.82,0,0,0,3.66-2,5.07,5.07,0,0,0,1-2.37,4.45,4.45,0,0,0-.38-2.39,5,5,0,0,0-1.66-2,5,5,0,0,0-2.38-1,4.38,4.38,0,0,0-2.39.37,5.14,5.14,0,0,0-2,1.66,4.82,4.82,0,0,0-.78,4.11l-3,.6a7,7,0,0,1-.05-3.34,8.83,8.83,0,0,1,1.53-3.27A8.61,8.61,0,0,1-125.43,2990.68Z" transform="translate(387.27 -2763.28)"/><path d="M-132.76,3008.14l-.19-2.91-2.8-2.57,2.34-2.55,11.09,10.17-2.34,2.55-5.18-4.75.68,9.66-2.62,2.85-.73-9.13-10.61-.77,2.75-3Z" transform="translate(387.27 -2763.28)"/><path d="M-137.52,3021.87l3.59-3.22,1.89,2.11-9.76,8.76-1.89-2.11,3.58-3.22-8.16-9.09,2.6-2.32Z" transform="translate(387.27 -2763.28)"/><path d="M-144,3031.14l-2.76,2.13-9.2-11.91,2.75-2.13Z" transform="translate(387.27 -2763.28)"/><path d="M-160.69,3025.68a7.48,7.48,0,0,1,4,.74,7.59,7.59,0,0,1,3.08,2.78,7.65,7.65,0,0,1,1.29,3.94,7.41,7.41,0,0,1-.94,3.92,8.79,8.79,0,0,1-3,3.12,8.85,8.85,0,0,1-3.34,1.35,7,7,0,0,1-3.31-.22l.75-2.94a4.82,4.82,0,0,0,4.14-.59,5.06,5.06,0,0,0,1.76-1.87,4.4,4.4,0,0,0,.5-2.36,5,5,0,0,0-.85-2.43,5.06,5.06,0,0,0-1.87-1.76,4.31,4.31,0,0,0-2.36-.5,5,5,0,0,0-2.43.85,4.76,4.76,0,0,0-2.2,3.55l-3-.51a6.92,6.92,0,0,1,1.15-3.13,8.8,8.8,0,0,1,2.6-2.51A8.72,8.72,0,0,1-160.69,3025.68Z" transform="translate(387.27 -2763.28)"/><path d="M-173.78,3039.35l.87-2.78-1.7-3.41,3.1-1.54,6.7,13.47-3.09,1.54-3.14-6.29-2.83,9.26-3.47,1.73,2.6-8.79-9.63-4.52,3.64-1.81Z" transform="translate(387.27 -2763.28)"/><path d="M-183.17,3050.46l4.5-1.71,1,2.65-12.26,4.66-1-2.65,4.5-1.71-4.34-11.42,3.26-1.23Z" transform="translate(387.27 -2763.28)"/><path d="M-204.72,3047.89l6.76-1.8.45-3.46,3.45-.92-2.6,16.27-3.32.89-10.39-12.81,3.54-.94Zm1.75,2.27,3.79,5,.82-6.18Z" transform="translate(387.27 -2763.28)"/><path d="M-214.25,3047.3a7.42,7.42,0,0,1,3.29,2.32,7.59,7.59,0,0,1,1.63,3.81,7.61,7.61,0,0,1-.47,4.12,7.48,7.48,0,0,1-2.49,3.17,8.62,8.62,0,0,1-4,1.59,8.78,8.78,0,0,1-3.6-.16,7.12,7.12,0,0,1-2.91-1.58l1.91-2.36a4.82,4.82,0,0,0,4,1.19,5,5,0,0,0,2.38-1,4.41,4.41,0,0,0,1.44-1.94,5.08,5.08,0,0,0,.25-2.56,5.12,5.12,0,0,0-1-2.38,4.41,4.41,0,0,0-1.94-1.44,5.06,5.06,0,0,0-2.56-.25,4.76,4.76,0,0,0-3.48,2.32l-2.51-1.72a7,7,0,0,1,2.34-2.37,9,9,0,0,1,3.41-1.19A8.71,8.71,0,0,1-214.25,3047.3Z" transform="translate(387.27 -2763.28)"/><path d="M-231.85,3054.25l2-2.17-.13-3.8,3.46-.11.48,15-3.46.11-.22-7-6.44,7.24-3.87.13,6-6.91-6.86-8.13,4.06-.12Z" transform="translate(387.27 -2763.28)"/><path d="M-245,3060.45l4.8.31-.18,2.83-13.09-.84.19-2.84,4.8.31.79-12.18,3.47.22Z" transform="translate(387.27 -2763.28)"/><path d="M-256.14,3062.3l-3.45-.48,2.07-14.91,3.45.48Z" transform="translate(387.27 -2763.28)"/><path d="M-263.9,3046.57a7.42,7.42,0,0,1,2.24,3.34,7.65,7.65,0,0,1,.17,4.15,7.72,7.72,0,0,1-1.92,3.68,7.42,7.42,0,0,1-3.46,2.06,8.66,8.66,0,0,1-4.3.07,8.85,8.85,0,0,1-3.3-1.45,7,7,0,0,1-2.16-2.51l2.63-1.52a4.81,4.81,0,0,0,3.31,2.54,5,5,0,0,0,2.57,0,4.4,4.4,0,0,0,2-1.29,5,5,0,0,0,1.14-2.3,5,5,0,0,0-.05-2.57,4.4,4.4,0,0,0-1.29-2,5.11,5.11,0,0,0-2.3-1.15,4.83,4.83,0,0,0-4.09.92l-1.73-2.5a6.9,6.9,0,0,1,3-1.37,8.85,8.85,0,0,1,3.61.1A8.66,8.66,0,0,1-263.9,3046.57Z" transform="translate(387.27 -2763.28)"/><path d="M-282.85,3046.76l2.61-1.33,1.25-3.59,3.27,1.14-5,14.21-3.27-1.14,2.32-6.64-8.61,4.45-3.65-1.28,8.09-4.28-3.49-10.05,3.84,1.34Z" transform="translate(387.27 -2763.28)"/><path d="M-297.33,3047.81l4.37,2-1.19,2.58-11.9-5.51,1.19-2.58,4.37,2,5.13-11.09,3.16,1.47Z" transform="translate(387.27 -2763.28)"/><path d="M-310.57,3030.59l6,3.57,2.79-2.09,3.07,1.82-13.46,9.51-2.95-1.75,1.9-16.38,3.14,1.87Zm-.41,2.83-.89,6.18,5-3.74Z" transform="translate(387.27 -2763.28)"/><path d="M-316.81,3023.37a7.38,7.38,0,0,1,.65,4,7.68,7.68,0,0,1-1.58,3.84,7.63,7.63,0,0,1-3.28,2.55,7.45,7.45,0,0,1-4,.43,8.82,8.82,0,0,1-3.94-1.73,8.88,8.88,0,0,1-2.39-2.69,7.16,7.16,0,0,1-.92-3.19l3-.28a4.8,4.8,0,0,0,1.95,3.69,5,5,0,0,0,2.35,1,4.39,4.39,0,0,0,2.4-.32,5,5,0,0,0,2-1.62,5,5,0,0,0,1-2.35,4.39,4.39,0,0,0-.33-2.4,5.09,5.09,0,0,0-1.61-2,4.79,4.79,0,0,0-4.09-.87l-.53-3a7,7,0,0,1,3.33,0,8.92,8.92,0,0,1,3.24,1.6A8.64,8.64,0,0,1-316.81,3023.37Z" transform="translate(387.27 -2763.28)"/><path d="M-334.09,3015.66l2.91-.13,2.64-2.74,2.49,2.39-10.41,10.87-2.5-2.4,4.87-5.07-9.68.46-2.79-2.68,9.14-.53,1-10.59,2.93,2.81Z" transform="translate(387.27 -2763.28)"/><path d="M-347.71,3010.6l3.14,3.65-2.16,1.85-8.54-9.95,2.15-1.85L-350,3008l9.27-7.95,2.27,2.64Z" transform="translate(387.27 -2763.28)"/><path d="M-356.82,3003.92l-2.07-2.8,12.1-8.94,2.07,2.8Z" transform="translate(387.27 -2763.28)"/><path d="M-351,2987.36a7.42,7.42,0,0,1-.82,3.94,7.63,7.63,0,0,1-2.85,3,7.69,7.69,0,0,1-4,1.2,7.4,7.4,0,0,1-3.9-1,8.67,8.67,0,0,1-3.05-3,8.72,8.72,0,0,1-1.27-3.37,7.09,7.09,0,0,1,.28-3.3l2.93.82a4.84,4.84,0,0,0,.49,4.15,5.07,5.07,0,0,0,1.84,1.79,4.29,4.29,0,0,0,2.35.56,5,5,0,0,0,2.44-.79,4.88,4.88,0,0,0,1.8-1.84,4.37,4.37,0,0,0,.56-2.35,5,5,0,0,0-.79-2.44,4.82,4.82,0,0,0-3.51-2.28l.58-3a7,7,0,0,1,3.1,1.22,8.83,8.83,0,0,1,2.45,2.65A8.69,8.69,0,0,1-351,2987.36Z" transform="translate(387.27 -2763.28)"/><path d="M-364.39,2974l2.77.93,3.44-1.62,1.48,3.13-13.62,6.41-1.47-3.13,6.36-3-9.2-3-1.65-3.51,8.73,2.79,4.74-9.52,1.72,3.67Z" transform="translate(387.27 -2763.28)"/><path d="M-375.28,2964.34l1.61,4.54-2.68.95-4.38-12.36,2.67-.95,1.61,4.54,11.51-4.09,1.17,3.28Z" transform="translate(387.27 -2763.28)"/><path d="M-372.24,2942.82l1.65,6.79,3.45.54.84,3.46-16.21-3-.81-3.34,13-10.1.86,3.56Zm-2.31,1.69-5,3.68,6.17,1Z" transform="translate(387.27 -2763.28)"/><path d="M-371.43,2933.33a7.52,7.52,0,0,1-2.39,3.24,7.63,7.63,0,0,1-3.85,1.55,7.75,7.75,0,0,1-4.11-.56,7.6,7.6,0,0,1-3.12-2.56,8.77,8.77,0,0,1-1.5-4,8.72,8.72,0,0,1,.25-3.6,7,7,0,0,1,1.63-2.87l2.33,2a4.84,4.84,0,0,0-1.29,4,5,5,0,0,0,.92,2.4,4.35,4.35,0,0,0,1.9,1.49,5.15,5.15,0,0,0,2.55.3,5.09,5.09,0,0,0,2.4-.91,4.43,4.43,0,0,0,1.49-1.91,4.93,4.93,0,0,0,.3-2.55,4.77,4.77,0,0,0-2.24-3.54l1.78-2.47a7,7,0,0,1,2.31,2.4,8.73,8.73,0,0,1,1.12,3.43A8.65,8.65,0,0,1-371.43,2933.33Z" transform="translate(387.27 -2763.28)"/><path d="M-378,2915.58l2.14,2,3.81-.06.05,3.46-15,.24-.06-3.46,7-.11-7.14-6.55-.06-3.87,6.81,6.12,8.23-6.73.07,4.06Z" transform="translate(387.27 -2763.28)"/><path d="M-383.91,2902.31l-.42,4.8-2.82-.25,1.13-13.06,2.83.24-.42,4.8,12.17,1-.3,3.47Z" transform="translate(387.27 -2763.28)"/><path d="M-385.51,2891.1l.55-3.44,14.86,2.4-.55,3.44Z" transform="translate(387.27 -2763.28)"/><path d="M-369.61,2883.7a7.56,7.56,0,0,1-3.4,2.17,7.64,7.64,0,0,1-4.14.07,7.61,7.61,0,0,1-3.64-2,7.44,7.44,0,0,1-2-3.5,8.7,8.7,0,0,1,0-4.3,8.82,8.82,0,0,1,1.52-3.27,7.11,7.11,0,0,1,2.56-2.1l1.46,2.67a4.81,4.81,0,0,0-2.62,3.25,5,5,0,0,0,0,2.56,4.34,4.34,0,0,0,1.25,2.07,5.12,5.12,0,0,0,2.27,1.2,5.08,5.08,0,0,0,2.57,0,4.34,4.34,0,0,0,2.07-1.25,5,5,0,0,0,1.19-2.27,4.75,4.75,0,0,0-.82-4.1l2.54-1.68a7,7,0,0,1,1.3,3.07,8.92,8.92,0,0,1-.18,3.61A8.75,8.75,0,0,1-369.61,2883.7Z" transform="translate(387.27 -2763.28)"/><path d="M-369.39,2864.77l1.27,2.63,3.57,1.33-1.22,3.24-14.09-5.26,1.21-3.25,6.58,2.47-4.25-8.71,1.35-3.62,4.11,8.18,10.12-3.26-1.42,3.81Z" transform="translate(387.27 -2763.28)"/><path d="M-370.11,2850.24l-2.12,4.32-2.55-1.25,5.78-11.77,2.55,1.25-2.12,4.32,11,5.38-1.53,3.13Z" transform="translate(387.27 -2763.28)"/><path d="M-352.61,2837.4l-3.7,5.93,2,2.84-1.89,3-9.21-13.66,1.82-2.92,16.33,2.26-1.94,3.1Zm-2.82-.47-6.15-1L-358,2841Z" transform="translate(387.27 -2763.28)"/><path d="M-345.24,2831.32a7.51,7.51,0,0,1-4,.56,7.59,7.59,0,0,1-3.8-1.67,7.6,7.6,0,0,1-2.47-3.33,7.39,7.39,0,0,1-.35-4A8.71,8.71,0,0,1-354,2819a8.83,8.83,0,0,1,2.74-2.34,7.13,7.13,0,0,1,3.2-.84l.23,3a4.83,4.83,0,0,0-3.74,1.87,5,5,0,0,0-1.08,2.33,4.39,4.39,0,0,0,.28,2.4,4.91,4.91,0,0,0,1.57,2,5,5,0,0,0,2.33,1.08,4.48,4.48,0,0,0,2.4-.27,5.06,5.06,0,0,0,2-1.57,4.81,4.81,0,0,0,1-4.07l3-.47a7,7,0,0,1-.09,3.33,8.87,8.87,0,0,1-1.68,3.21A8.66,8.66,0,0,1-345.24,2831.32Z" transform="translate(387.27 -2763.28)"/><path d="M-337.15,2814.21l0,2.91,2.69,2.7-2.45,2.44-10.63-10.65,2.45-2.44,5,5-.25-9.68,2.73-2.74.33,9.16,10.57,1.24-2.88,2.87Z" transform="translate(387.27 -2763.28)"/><path d="M-331.8,2800.7l-3.72,3.06-1.8-2.2,10.14-8.32,1.8,2.2-3.72,3,7.75,9.44-2.7,2.21Z" transform="translate(387.27 -2763.28)"/><path d="M-324.91,2791.74l2.84-2,8.68,12.3-2.85,2Z" transform="translate(387.27 -2763.28)"/><path d="M-308.5,2797.92a7.39,7.39,0,0,1-3.92-.91,7.56,7.56,0,0,1-2.95-2.91,7.65,7.65,0,0,1-1.12-4,7.42,7.42,0,0,1,1.11-3.87,8.63,8.63,0,0,1,3.1-3,8.83,8.83,0,0,1,3.4-1.21,7.31,7.31,0,0,1,3.29.36l-.88,2.92a4.78,4.78,0,0,0-4.16.4,5.1,5.1,0,0,0-1.84,1.79,4.35,4.35,0,0,0-.6,2.34,5,5,0,0,0,.74,2.46,5,5,0,0,0,1.79,1.84,4.35,4.35,0,0,0,2.34.6,4.93,4.93,0,0,0,2.46-.73,4.78,4.78,0,0,0,2.35-3.46l3,.64a6.94,6.94,0,0,1-1.29,3.08,8.86,8.86,0,0,1-2.7,2.39A8.62,8.62,0,0,1-308.5,2797.92Z" transform="translate(387.27 -2763.28)"/><path d="M-294.8,2784.83l-1,2.75,1.54,3.48-3.16,1.4-6.1-13.76,3.16-1.4,2.85,6.43,3.25-9.13,3.53-1.57-3,8.66,9.42,4.95-3.72,1.65Z" transform="translate(387.27 -2763.28)"/><path d="M-284.95,2774.17l-4.57,1.51-.89-2.7,12.45-4.11.89,2.69-4.57,1.51,3.83,11.6-3.31,1.09Z" transform="translate(387.27 -2763.28)"/><path d="M-263.52,2777.69l-6.83,1.5-.61,3.43-3.48.77,3.32-16.14,3.36-.74,9.8,13.26-3.57.78Zm-1.64-2.35-3.57-5.12-1.09,6.14Z" transform="translate(387.27 -2763.28)"/><path d="M-254,2778.7a7.54,7.54,0,0,1-3.19-2.46,7.7,7.7,0,0,1-1.46-3.88,7.71,7.71,0,0,1,.65-4.1,7.46,7.46,0,0,1,2.63-3.05,8.62,8.62,0,0,1,4.06-1.42,8.8,8.8,0,0,1,3.59.33,7,7,0,0,1,2.84,1.69l-2,2.28a4.86,4.86,0,0,0-4-1.37,5.13,5.13,0,0,0-2.42.86,4.37,4.37,0,0,0-1.52,1.88,4.87,4.87,0,0,0-.36,2.54,5,5,0,0,0,.86,2.42,4.3,4.3,0,0,0,1.87,1.53,5,5,0,0,0,2.55.35,4.79,4.79,0,0,0,3.58-2.15l2.43,1.82a6.82,6.82,0,0,1-2.45,2.26,8.88,8.88,0,0,1-3.46,1.05A8.69,8.69,0,0,1-254,2778.7Z" transform="translate(387.27 -2763.28)"/></svg>